<svg width="1100" height="1100" viewBox="0 0 1100 1100" fill="none" xmlns="http://www.w3.org/2000/svg">
<path fill-rule="evenodd" clip-rule="evenodd" d="M479.054 384.62C473.44 387.67 462.238 403.645 453.307 421.338C440.483 446.742 435.042 470.767 435 502.168C434.957 535.017 441.187 561.063 455.452 587.668C466.169 607.657 476.062 619.928 482.38 621.07C490.05 622.457 497.171 616.417 497.179 608.518C497.182 605.946 496.097 603.29 493.504 599.518C491.481 596.576 487.811 591.243 485.35 587.668C478.598 577.864 470.599 560.272 466.625 546.487C458.451 518.131 458.045 493.455 465.268 463.901C470.366 443.043 477.162 428.349 490.097 410.218C496.526 401.206 497.183 399.838 497.183 395.462C497.183 385.762 487.553 380.003 479.054 384.62ZM757.453 384.125C753.996 385.655 750.645 390.288 749.62 394.955C748.939 398.054 748.79 397.782 761.539 416.683C787.559 455.26 794.017 507.876 778.35 553.668C773.866 566.775 767.94 578.364 758.664 592.167C749.557 605.718 748.621 608.747 751.7 614.701C755.54 622.126 767.537 622.992 773.451 616.271C777.817 611.309 788.453 594.282 793.969 583.425C804.121 563.444 809.811 543.097 812.218 518.168C814.627 493.212 810.003 459.38 801.125 437.017C791.687 413.241 772.483 383.702 766.434 383.654C765.471 383.647 763.783 383.428 762.683 383.168C761.583 382.908 759.229 383.339 757.453 384.125ZM517.895 423.749C509.866 429.916 497.437 454.617 493.029 473.168C490.573 483.504 489.605 505.248 491.025 518.187C493.043 536.577 500.464 557.356 510.062 571.489C515.969 580.188 519.311 582.668 525.125 582.668C530.771 582.668 534.095 580.481 536.658 575.079C538.991 570.162 538.216 567.168 532.169 557.74C514.897 530.816 510.971 500.913 520.736 470.668C522.908 463.942 526.106 456.933 529.635 451.168C539.419 435.182 539.938 432.392 534.367 425.72C531.933 422.804 530.854 422.315 526.125 421.986C521.721 421.679 520.151 422.016 517.895 423.749ZM714.798 423.756C711.483 426.364 709.183 430.711 709.183 434.368C709.184 436.077 711.71 441.22 715.667 447.566C726.252 464.544 730.115 477.176 730.919 497.453C731.894 522.01 727.113 539.799 714.693 557.828C710.067 564.545 709.183 566.531 709.183 570.213C709.183 578.828 718.807 585.523 726.543 582.291C735.073 578.727 749.64 552.219 754.282 531.815C757.224 518.883 757.939 494.868 755.768 481.885C753.656 469.256 749.473 456.202 744.089 445.439C739.385 436.035 732.201 425.495 728.94 423.211C725.673 420.922 718.026 421.217 714.798 423.756ZM611.183 426.271C592.837 429.614 582.494 434.69 570.111 446.43C559.823 456.184 554.47 464.588 550.091 477.861C546.428 488.961 545.227 503.012 547.099 512.857C551.946 538.352 570.711 571.522 608.532 621.447C611.748 625.694 616.15 631.531 618.313 634.418C620.476 637.305 622.64 639.668 623.122 639.668C624.528 639.668 632.888 629.939 640.305 619.668C644.079 614.443 649.925 606.373 653.297 601.734C663.905 587.138 669.597 578.567 677.582 565.168C688.114 547.494 693.427 536.211 697.359 523.168C700.284 513.465 700.666 510.871 700.601 501.168C700.444 478.058 689.916 455.995 672.432 442.14C665.532 436.672 652.929 430.288 644.683 428.084C638.863 426.528 616.434 425.315 611.183 426.271ZM637.842 470.626C645.568 474.204 651.631 480.346 655.455 488.472C658.198 494.301 658.389 495.433 657.982 503.472C657.655 509.927 656.956 513.3 655.269 516.56C651.882 523.108 644.649 530.291 638.308 533.406C633.431 535.801 631.487 536.168 623.683 536.168C615.926 536.168 613.923 535.795 609.176 533.463C594.038 526.028 585.228 508.117 589.559 493.581C593.073 481.79 601.483 472.962 613.044 468.93C621.419 466.009 628.989 466.526 637.842 470.626Z" fill="#173861"/>
<path d="M159.83 934C157.747 934 156.705 932.958 156.705 930.875V770.5C156.705 768.417 157.747 767.375 159.83 767.375H228.955C230.955 767.375 232.622 768.042 233.955 769.375L258.955 794.375C260.372 795.792 261.08 797.458 261.08 799.375V842.5C261.08 844.5 260.372 846.167 258.955 847.5L233.955 872.5C232.622 873.917 230.955 874.625 228.955 874.625H198.33V930.875C198.33 932.958 197.288 934 195.205 934H159.83ZM207.705 840.625C214.622 840.625 219.33 839.25 221.83 836.5C224.413 833.75 225.705 828.542 225.705 820.875C225.705 813.208 224.413 808 221.83 805.25C219.33 802.5 214.622 801.125 207.705 801.125C200.872 801.125 196.163 802.5 193.58 805.25C191.08 808 189.83 813.208 189.83 820.875C189.83 828.542 191.08 833.75 193.58 836.5C196.163 839.25 200.872 840.625 207.705 840.625ZM363.342 934C361.342 934 359.675 933.292 358.342 931.875L333.342 906.875C331.925 905.542 331.217 903.875 331.217 901.875V770.5C331.217 768.417 332.258 767.375 334.342 767.375H369.717C371.8 767.375 372.842 768.417 372.842 770.5V898.125C372.842 899.792 373.675 900.625 375.342 900.625H395.842V770.5C395.842 768.417 396.883 767.375 398.967 767.375H434.342C436.425 767.375 437.467 768.417 437.467 770.5V930.875C437.467 932.958 436.425 934 434.342 934H363.342ZM520.572 934C518.489 934 517.447 932.958 517.447 930.875V770.5C517.447 768.417 518.489 767.375 520.572 767.375H555.947C558.031 767.375 559.072 768.417 559.072 770.5V900.625H590.572C592.656 900.625 593.697 901.667 593.697 903.75V930.875C593.697 932.958 592.656 934 590.572 934H520.572ZM663.014 934C660.93 934 659.889 932.958 659.889 930.875V907.375C659.889 906.292 659.93 905.417 660.014 904.75C660.18 904.083 660.68 903.542 661.514 903.125L694.264 888.125V865.875L662.014 845.875C660.597 845.042 659.889 843.792 659.889 842.125V796.25C659.889 794.917 659.972 793.958 660.139 793.375C660.305 792.708 660.93 792 662.014 791.25L694.889 769C695.722 768.5 696.472 768.125 697.139 767.875C697.889 767.542 698.805 767.375 699.889 767.375H733.639C735.722 767.375 736.764 768.417 736.764 770.5V791.75C736.764 793.583 736.139 794.833 734.889 795.5L702.139 809V832.125L734.889 850.875C736.139 851.458 736.764 852.792 736.764 854.875V909.25C736.764 909.917 736.639 910.625 736.389 911.375C736.222 912.125 735.805 912.667 735.139 913L695.889 932.5C695.389 932.75 694.764 933.083 694.014 933.5C693.347 933.833 692.68 934 692.014 934H663.014ZM816.129 934C814.046 934 813.004 932.958 813.004 930.875V770.5C813.004 768.417 814.046 767.375 816.129 767.375H903.254C905.337 767.375 906.379 768.417 906.379 770.5V797.5C906.379 799.583 905.337 800.625 903.254 800.625H854.629V836.125H899.004C901.087 836.125 902.129 837.167 902.129 839.25V862.125C902.129 864.208 901.087 865.25 899.004 865.25H854.629V900.625H903.254C905.337 900.625 906.379 901.667 906.379 903.75V930.875C906.379 932.958 905.337 934 903.254 934H816.129Z" fill="#173861"/>
<path d="M738.381 261.578L663.652 285.805L652.788 290H387V390H342V290H182V472H262V511H182V698H342V598H387V698H878V413.423L922 343.735V740H141V249H780.365L738.381 261.578ZM387 538H342V511H325V472H342V450H387V538ZM899.353 267.602C899.629 267.986 899.911 268.369 900.199 268.748C901.672 270.688 903.249 272.506 904.913 274.198L878 330.212V290H773.264L899.353 267.602ZM922 270.175C918.007 267.596 914.386 264.292 911.346 260.287C908.672 256.765 906.64 252.955 905.229 249H922V270.175Z" fill="#E30613"/>
<path d="M983.28 219.953C990.175 236.379 985.409 256.002 970.564 267.273C965.642 271.009 960.134 273.431 954.46 274.597L892.183 373.233L861.156 420.015L828.809 463.405L848.42 413.989L871.011 361.056L917.886 263.494C916.697 262.284 915.571 260.987 914.518 259.6C914.313 259.329 914.111 259.056 913.913 258.781L804.925 278.141L747.868 285.675L695 291.285L745.487 271.789L798.887 254.476L908.86 221.529C911.409 214.622 915.892 208.336 922.191 203.554C937.604 191.853 958.77 193.037 972.762 205.339L1008.44 178.249L1019.33 192.586L983.28 219.953ZM970.272 217.273C960.253 204.077 941.434 201.501 928.238 211.519C915.041 221.538 912.465 240.357 922.483 253.554C932.502 266.75 951.321 269.326 964.518 259.308C977.714 249.289 980.29 230.47 970.272 217.273ZM958.325 226.343C963.334 232.942 962.046 242.351 955.448 247.361C948.849 252.37 939.44 251.082 934.43 244.483C929.421 237.885 930.709 228.476 937.308 223.466C943.906 218.457 953.315 219.745 958.325 226.343ZM955.338 228.611C951.581 223.662 944.524 222.696 939.575 226.453C934.626 230.21 933.66 237.267 937.417 242.216C941.174 247.165 948.231 248.131 953.18 244.374C958.129 240.617 959.095 233.56 955.338 228.611Z" fill="#173861"/>
</svg>
