<svg width="6118" height="1000" viewBox="0 0 6118 1000" fill="none" xmlns="http://www.w3.org/2000/svg">
<rect width="6118" height="1000" rx="56" fill="white"/>
<path d="M1119.34 391.92V428H1080.62V290.5H1141.12C1152.86 290.5 1162.32 292.187 1169.5 295.56C1176.84 298.787 1182.12 304.067 1185.34 311.4C1188.72 318.733 1190.4 328.34 1190.4 340.22C1190.4 357.967 1186.66 371.02 1179.18 379.38C1171.85 387.74 1160.26 391.92 1144.42 391.92H1119.34ZM1119.34 363.54H1139.58C1143.4 363.54 1146.04 362.88 1147.5 361.56C1149.12 360.24 1149.92 357.82 1149.92 354.3V331.64C1149.92 328.12 1149.12 325.7 1147.5 324.38C1146.04 323.06 1143.4 322.4 1139.58 322.4H1119.34V363.54ZM1263.92 431.3C1252.19 431.3 1242.51 430.493 1234.88 428.88C1227.25 427.267 1221.24 424.553 1216.84 420.74C1212.59 416.927 1209.58 411.647 1207.82 404.9C1206.06 398.007 1205.18 389.353 1205.18 378.94V290.5H1243.9V398.3H1264.8C1270.08 398.3 1274.11 398.007 1276.9 397.42C1279.69 396.687 1281.59 395.513 1282.62 393.9C1283.65 392.14 1284.16 389.72 1284.16 386.64V290.5H1322.88V378.94C1322.88 389.207 1322 397.787 1320.24 404.68C1318.48 411.427 1315.4 416.78 1311 420.74C1306.6 424.553 1300.59 427.267 1292.96 428.88C1285.33 430.493 1275.65 431.3 1263.92 431.3ZM1347.03 428V290.5H1385.75V396.1H1429.53V428H1347.03ZM1443.04 392.14C1450.22 394.193 1457.56 395.807 1465.04 396.98C1472.52 398.153 1479.92 398.74 1487.26 398.74C1491.07 398.74 1494.44 398.667 1497.38 398.52C1500.31 398.373 1503.46 398.007 1506.84 397.42V378.5L1486.82 376.74C1478.02 376.007 1470.54 374.76 1464.38 373C1458.36 371.093 1453.52 368.527 1449.86 365.3C1446.19 361.927 1443.55 357.82 1441.94 352.98C1440.32 347.993 1439.52 341.98 1439.52 334.94C1439.52 323.207 1441.13 313.893 1444.36 307C1447.58 299.96 1453.01 294.9 1460.64 291.82C1468.26 288.74 1478.46 287.2 1491.22 287.2C1499.72 287.2 1508.16 287.713 1516.52 288.74C1524.88 289.767 1533.09 291.233 1541.16 293.14L1536.32 324.16C1528.98 322.693 1522.53 321.667 1516.96 321.08C1511.38 320.347 1505.59 319.98 1499.58 319.98C1495.32 319.98 1491.88 320.053 1489.24 320.2C1486.74 320.347 1484.03 320.64 1481.1 321.08V340L1499.14 341.54C1510.87 342.713 1520.33 344.987 1527.52 348.36C1534.85 351.587 1540.13 356.28 1543.36 362.44C1546.73 368.453 1548.42 376.227 1548.42 385.76C1548.42 396.467 1546.44 405.193 1542.48 411.94C1538.66 418.54 1532.58 423.453 1524.22 426.68C1515.86 429.76 1505.08 431.3 1491.88 431.3C1482.05 431.3 1472.59 430.713 1463.5 429.54C1454.55 428.367 1445.9 426.533 1437.54 424.04L1443.04 392.14ZM1606.82 373.44V396.1H1660.5V428H1568.1V290.5H1661.16L1656.32 322.4H1606.82V345.06H1652.58V373.44H1606.82ZM1676.68 408.2C1676.68 400.573 1678.08 395.073 1680.86 391.7C1683.65 388.327 1689.44 386.64 1698.24 386.64C1707.04 386.64 1712.84 388.327 1715.62 391.7C1718.41 395.073 1719.8 400.573 1719.8 408.2C1719.8 415.827 1718.41 421.253 1715.62 424.48C1712.84 427.707 1707.04 429.32 1698.24 429.32C1689.44 429.32 1683.65 427.707 1680.86 424.48C1678.08 421.253 1676.68 415.827 1676.68 408.2ZM1676.68 338.46C1676.68 330.833 1678.08 325.333 1680.86 321.96C1683.65 318.587 1689.44 316.9 1698.24 316.9C1707.04 316.9 1712.84 318.587 1715.62 321.96C1718.41 325.333 1719.8 330.833 1719.8 338.46C1719.8 346.087 1718.41 351.513 1715.62 354.74C1712.84 357.967 1707.04 359.58 1698.24 359.58C1689.44 359.58 1683.65 357.967 1680.86 354.74C1678.08 351.513 1676.68 346.087 1676.68 338.46ZM1775.15 428L1811.67 290.5H1871.73L1908.25 428H1869.53L1842.69 327.46H1840.71L1813.87 428H1775.15ZM1799.57 404.02V375.64H1883.83V404.02H1799.57ZM1923.02 428V318H1942.16L1951.84 329C1958.15 324.307 1964.9 320.787 1972.08 318.44C1979.27 316.093 1986.97 314.92 1995.18 314.92C2005.6 314.92 2013.59 317.047 2019.16 321.3C2024.88 325.407 2027.74 331.2 2027.74 338.68V428H1989.02V346.82H1972.74C1968.64 346.82 1965.78 347.407 1964.16 348.58C1962.55 349.753 1961.74 351.733 1961.74 354.52V428H1923.02ZM2094.57 359.36C2094.57 345.427 2095.6 333.84 2097.65 324.6C2099.7 315.213 2103.15 307.807 2107.99 302.38C2112.83 296.953 2119.36 293.067 2127.57 290.72C2135.78 288.373 2145.98 287.2 2158.15 287.2C2170.32 287.2 2180.52 288.373 2188.73 290.72C2197.09 293.067 2203.62 296.953 2208.31 302.38C2213.15 307.807 2216.6 315.213 2218.65 324.6C2220.7 333.84 2221.73 345.427 2221.73 359.36C2221.73 373.293 2220.7 384.88 2218.65 394.12C2216.6 403.36 2213.15 410.693 2208.31 416.12C2203.62 421.547 2197.09 425.433 2188.73 427.78C2180.52 430.127 2170.32 431.3 2158.15 431.3C2145.98 431.3 2135.78 430.127 2127.57 427.78C2119.36 425.433 2112.83 421.547 2107.99 416.12C2103.15 410.693 2099.7 403.36 2097.65 394.12C2095.6 384.88 2094.57 373.293 2094.57 359.36ZM2136.15 398.3H2162.33C2169.08 398.3 2173.7 397.347 2176.19 395.44C2178.83 393.533 2180.15 390.233 2180.15 385.54V320.2H2153.75C2147.15 320.2 2142.53 321.153 2139.89 323.06C2137.4 324.967 2136.15 328.267 2136.15 332.96V398.3ZM2306.06 431.3C2297.7 431.3 2290.51 430.2 2284.5 428C2278.48 425.947 2273.64 422.647 2269.98 418.1C2266.31 413.407 2263.6 407.393 2261.84 400.06C2260.22 392.58 2259.42 383.56 2259.42 373C2259.42 362.44 2260.22 353.493 2261.84 346.16C2263.6 338.827 2266.31 332.887 2269.98 328.34C2273.64 323.647 2278.48 320.273 2284.5 318.22C2290.51 316.02 2297.7 314.92 2306.06 314.92C2314.27 314.92 2321.24 316.02 2326.96 318.22C2332.68 320.273 2337.37 323.647 2341.04 328.34C2344.7 332.887 2347.34 338.9 2348.96 346.38C2350.72 353.713 2351.6 362.587 2351.6 373C2351.6 383.413 2350.72 392.36 2348.96 399.84C2347.34 407.173 2344.7 413.187 2341.04 417.88C2337.37 422.573 2332.6 425.947 2326.74 428C2321.02 430.2 2314.12 431.3 2306.06 431.3ZM2282.08 401.82H2301C2304.52 401.82 2306.86 401.453 2308.04 400.72C2309.36 399.84 2310.02 398.227 2310.02 395.88V344.4H2290.88C2287.5 344.4 2285.16 344.84 2283.84 345.72C2282.66 346.453 2282.08 347.92 2282.08 350.12V401.82ZM2243.36 464.96V318H2262.5L2282.08 345.94V461.88L2243.36 464.96ZM2422.41 431.08C2412.87 431.08 2404.66 429.98 2397.77 427.78C2390.87 425.58 2385.23 422.133 2380.83 417.44C2376.43 412.747 2373.13 406.733 2370.93 399.4C2368.87 392.067 2367.85 383.267 2367.85 373C2367.85 359.213 2369.75 348.067 2373.57 339.56C2377.53 331.053 2383.54 324.82 2391.61 320.86C2399.82 316.9 2410.38 314.92 2423.29 314.92C2436.19 314.92 2446.24 316.02 2453.43 318.22C2460.61 320.42 2465.67 324.16 2468.61 329.44C2471.69 334.72 2473.23 341.98 2473.23 351.22C2473.23 358.113 2472.13 363.907 2469.93 368.6C2467.87 373.147 2464.43 376.813 2459.59 379.6C2454.75 382.387 2448.22 384.367 2440.01 385.54C2431.79 386.713 2421.6 387.3 2409.43 387.3H2402.83V367.06H2422.41C2428.42 367.06 2432.53 366.4 2434.73 365.08C2437.07 363.613 2438.25 360.973 2438.25 357.16V343.52H2425.27C2419.25 343.52 2415.07 344.18 2412.73 345.5C2410.53 346.82 2409.43 349.313 2409.43 352.98V401.16C2411.48 401.6 2413.83 401.967 2416.47 402.26C2419.25 402.407 2422.7 402.48 2426.81 402.48C2432.97 402.48 2439.2 402.04 2445.51 401.16C2451.81 400.133 2458.49 398.667 2465.53 396.76L2470.37 423.82C2463.18 426.167 2455.55 427.927 2447.49 429.1C2439.42 430.42 2431.06 431.08 2422.41 431.08ZM2496.87 428V318H2516.01L2525.69 329C2532 324.307 2538.75 320.787 2545.93 318.44C2553.12 316.093 2560.82 314.92 2569.03 314.92C2579.45 314.92 2587.44 317.047 2593.01 321.3C2598.73 325.407 2601.59 331.2 2601.59 338.68V428H2562.87V346.82H2546.59C2542.49 346.82 2539.63 347.407 2538.01 348.58C2536.4 349.753 2535.59 351.733 2535.59 354.52V428H2496.87ZM2619.38 361.56C2619.38 357.453 2620.7 354.96 2623.34 354.08C2625.98 353.2 2629.42 352.76 2633.68 352.76H2684.5V373.44C2684.5 377.547 2683.18 380.04 2680.54 380.92C2677.9 381.8 2674.45 382.24 2670.2 382.24H2619.38V361.56ZM2702.45 392.14C2709.64 394.193 2716.97 395.807 2724.45 396.98C2731.93 398.153 2739.34 398.74 2746.67 398.74C2750.48 398.74 2753.86 398.667 2756.79 398.52C2759.72 398.373 2762.88 398.007 2766.25 397.42V378.5L2746.23 376.74C2737.43 376.007 2729.95 374.76 2723.79 373C2717.78 371.093 2712.94 368.527 2709.27 365.3C2705.6 361.927 2702.96 357.82 2701.35 352.98C2699.74 347.993 2698.93 341.98 2698.93 334.94C2698.93 323.207 2700.54 313.893 2703.77 307C2707 299.96 2712.42 294.9 2720.05 291.82C2727.68 288.74 2737.87 287.2 2750.63 287.2C2759.14 287.2 2767.57 287.713 2775.93 288.74C2784.29 289.767 2792.5 291.233 2800.57 293.14L2795.73 324.16C2788.4 322.693 2781.94 321.667 2776.37 321.08C2770.8 320.347 2765 319.98 2758.99 319.98C2754.74 319.98 2751.29 320.053 2748.65 320.2C2746.16 320.347 2743.44 320.64 2740.51 321.08V340L2758.55 341.54C2770.28 342.713 2779.74 344.987 2786.93 348.36C2794.26 351.587 2799.54 356.28 2802.77 362.44C2806.14 368.453 2807.83 376.227 2807.83 385.76C2807.83 396.467 2805.85 405.193 2801.89 411.94C2798.08 418.54 2791.99 423.453 2783.63 426.68C2775.27 429.76 2764.49 431.3 2751.29 431.3C2741.46 431.3 2732 430.713 2722.91 429.54C2713.96 428.367 2705.31 426.533 2696.95 424.04L2702.45 392.14ZM2878.34 431.08C2868.36 431.08 2859.86 429.98 2852.82 427.78C2845.78 425.58 2839.98 422.207 2835.44 417.66C2831.04 412.967 2827.74 406.953 2825.54 399.62C2823.48 392.14 2822.46 383.267 2822.46 373C2822.46 362.587 2823.48 353.713 2825.54 346.38C2827.74 338.9 2831.04 332.887 2835.44 328.34C2839.98 323.647 2845.78 320.273 2852.82 318.22C2859.86 316.02 2868.36 314.92 2878.34 314.92C2888.31 314.92 2896.82 316.02 2903.86 318.22C2910.9 320.273 2916.62 323.647 2921.02 328.34C2925.56 332.887 2928.86 338.9 2930.92 346.38C2932.97 353.713 2934 362.587 2934 373C2934 383.267 2932.97 392.14 2930.92 399.62C2928.86 406.953 2925.56 412.967 2921.02 417.66C2916.62 422.207 2910.9 425.58 2903.86 427.78C2896.82 429.98 2888.31 431.08 2878.34 431.08ZM2864.04 401.6H2883.62C2887.14 401.6 2889.48 401.233 2890.66 400.5C2891.98 399.62 2892.64 398.007 2892.64 395.66V344.4H2873.06C2869.54 344.4 2867.12 344.84 2865.8 345.72C2864.62 346.453 2864.04 347.993 2864.04 350.34V401.6ZM3058.97 318V428H3039.83L3029.93 417C3023.77 421.693 3017.02 425.213 3009.69 427.56C3002.36 429.907 2994.51 431.08 2986.15 431.08C2975.15 431.08 2967.08 428.733 2961.95 424.04C2956.82 419.2 2954.25 411.573 2954.25 401.16V318H2992.97V404.46H3009.25C3013.36 404.46 3016.22 403.873 3017.83 402.7C3019.44 401.527 3020.25 399.547 3020.25 396.76V318H3058.97ZM3104.25 318L3115.25 333.18C3120.09 328.34 3125.15 324.453 3130.43 321.52C3135.71 318.44 3141.29 316.167 3147.15 314.7L3149.79 352.32C3147.45 352.613 3144.51 353.347 3140.99 354.52C3137.47 355.693 3134.17 357.013 3131.09 358.48C3128.01 359.8 3125.59 361.12 3123.83 362.44V428H3085.11V318H3104.25ZM3207.29 431.08C3198.78 431.08 3191.52 430.053 3185.51 428C3179.49 425.8 3174.58 422.353 3170.77 417.66C3166.95 412.967 3164.09 406.953 3162.19 399.62C3160.43 392.287 3159.55 383.413 3159.55 373C3159.55 362.587 3160.43 353.713 3162.19 346.38C3164.09 338.9 3166.95 332.887 3170.77 328.34C3174.58 323.647 3179.49 320.273 3185.51 318.22C3191.52 316.02 3198.78 314.92 3207.29 314.92C3211.54 314.92 3216.01 315.14 3220.71 315.58C3225.55 316.02 3230.09 316.533 3234.35 317.12C3238.6 317.707 3241.97 318.44 3244.47 319.32L3240.95 346.6C3237.13 345.427 3233.25 344.62 3229.29 344.18C3225.47 343.74 3221.37 343.52 3216.97 343.52C3211.1 343.52 3206.99 344.767 3204.65 347.26C3202.3 349.753 3201.13 354.08 3201.13 360.24V401.16C3204.06 402.04 3208.68 402.48 3214.99 402.48C3219.97 402.48 3224.74 402.04 3229.29 401.16C3233.83 400.133 3238.45 398.667 3243.15 396.76L3246.67 423.82C3240.8 426.167 3234.49 427.927 3227.75 429.1C3221.15 430.42 3214.33 431.08 3207.29 431.08ZM3313.15 431.08C3303.62 431.08 3295.4 429.98 3288.51 427.78C3281.62 425.58 3275.97 422.133 3271.57 417.44C3267.17 412.747 3263.87 406.733 3261.67 399.4C3259.62 392.067 3258.59 383.267 3258.59 373C3258.59 359.213 3260.5 348.067 3264.31 339.56C3268.27 331.053 3274.28 324.82 3282.35 320.86C3290.56 316.9 3301.12 314.92 3314.03 314.92C3326.94 314.92 3336.98 316.02 3344.17 318.22C3351.36 320.42 3356.42 324.16 3359.35 329.44C3362.43 334.72 3363.97 341.98 3363.97 351.22C3363.97 358.113 3362.87 363.907 3360.67 368.6C3358.62 373.147 3355.17 376.813 3350.33 379.6C3345.49 382.387 3338.96 384.367 3330.75 385.54C3322.54 386.713 3312.34 387.3 3300.17 387.3H3293.57V367.06H3313.15C3319.16 367.06 3323.27 366.4 3325.47 365.08C3327.82 363.613 3328.99 360.973 3328.99 357.16V343.52H3316.01C3310 343.52 3305.82 344.18 3303.47 345.5C3301.27 346.82 3300.17 349.313 3300.17 352.98V401.16C3302.22 401.6 3304.57 401.967 3307.21 402.26C3310 402.407 3313.44 402.48 3317.55 402.48C3323.71 402.48 3329.94 402.04 3336.25 401.16C3342.56 400.133 3349.23 398.667 3356.27 396.76L3361.11 423.82C3353.92 426.167 3346.3 427.927 3338.23 429.1C3330.16 430.42 3321.8 431.08 3313.15 431.08ZM3490.78 431.3C3479.04 431.3 3469.36 430.493 3461.74 428.88C3454.11 427.267 3448.1 424.553 3443.7 420.74C3439.44 416.927 3436.44 411.647 3434.68 404.9C3432.92 398.007 3432.04 389.353 3432.04 378.94V290.5H3470.76V398.3H3491.66C3496.94 398.3 3500.97 398.007 3503.76 397.42C3506.54 396.687 3508.45 395.513 3509.48 393.9C3510.5 392.14 3511.02 389.72 3511.02 386.64V290.5H3549.74V378.94C3549.74 389.207 3548.86 397.787 3547.1 404.68C3545.34 411.427 3542.26 416.78 3537.86 420.74C3533.46 424.553 3527.44 427.267 3519.82 428.88C3512.19 430.493 3502.51 431.3 3490.78 431.3ZM3566.18 290.5H3604.9L3618.32 391.04H3620.3L3638.56 290.5H3667.6L3643.62 428H3585.54L3566.18 290.5ZM3752.96 290.5L3733.38 428H3675.3L3651.54 290.5H3680.36L3698.84 391.04H3700.82L3714.24 290.5H3752.96ZM3771.75 290.5H3831.81C3847.21 290.5 3858.29 293.36 3865.03 299.08C3871.93 304.653 3875.37 313.747 3875.37 326.36C3875.37 333.107 3874.05 339.267 3871.41 344.84C3868.92 350.413 3865.33 354.667 3860.63 357.6V358.92C3866.94 360.533 3872.07 364.2 3876.03 369.92C3880.14 375.493 3882.19 381.947 3882.19 389.28C3882.19 401.747 3878.53 411.353 3871.19 418.1C3863.86 424.7 3853.23 428 3839.29 428H3771.75V290.5ZM3810.47 415.9L3794.41 399.84H3830.71C3835.11 399.84 3838.19 398.813 3839.95 396.76C3841.71 394.56 3842.59 390.82 3842.59 385.54C3842.59 380.553 3841.71 377.033 3839.95 374.98C3838.34 372.927 3835.33 371.9 3830.93 371.9H3806.95V344.84H3825.43C3829.83 344.84 3832.77 343.96 3834.23 342.2C3835.85 340.293 3836.65 336.773 3836.65 331.64C3836.65 326.507 3835.92 323.06 3834.45 321.3C3832.99 319.54 3830.05 318.66 3825.65 318.66H3794.41L3810.47 302.6V415.9ZM3948.14 290.5H3986.86V428H3948.14V290.5ZM4013.02 428V318H4032.16L4041.84 329C4048.15 324.307 4054.9 320.787 4062.08 318.44C4069.27 316.093 4076.97 314.92 4085.18 314.92C4095.6 314.92 4103.59 317.047 4109.16 321.3C4114.88 325.407 4117.74 331.2 4117.74 338.68V428H4079.02V346.82H4062.74C4058.64 346.82 4055.78 347.407 4054.16 348.58C4052.55 349.753 4051.74 351.733 4051.74 354.52V428H4013.02ZM4183.27 314.92C4191.78 314.92 4198.96 316.02 4204.83 318.22C4210.84 320.42 4215.68 323.793 4219.35 328.34C4223.02 332.887 4225.66 338.9 4227.27 346.38C4229.03 353.713 4229.91 362.587 4229.91 373C4229.91 383.56 4229.03 392.58 4227.27 400.06C4225.66 407.393 4223.02 413.407 4219.35 418.1C4215.68 422.647 4210.84 425.947 4204.83 428C4198.96 430.2 4191.78 431.3 4183.27 431.3C4175.06 431.3 4168.09 430.2 4162.37 428C4156.65 425.947 4151.96 422.573 4148.29 417.88C4144.62 413.187 4141.91 407.173 4140.15 399.84C4138.54 392.507 4137.73 383.56 4137.73 373C4137.73 362.587 4138.54 353.713 4140.15 346.38C4141.91 338.9 4144.62 332.887 4148.29 328.34C4151.96 323.647 4156.65 320.273 4162.37 318.22C4168.09 316.02 4175.06 314.92 4183.27 314.92ZM4207.25 344.4H4188.11C4184.74 344.4 4182.39 344.84 4181.07 345.72C4179.9 346.453 4179.31 347.993 4179.31 350.34V401.82H4198.23C4201.75 401.82 4204.1 401.453 4205.27 400.72C4206.59 399.84 4207.25 398.227 4207.25 395.88V344.4ZM4245.97 281.04V428H4226.83L4207.25 400.06V284.12L4245.97 281.04ZM4323.16 431.08C4313.19 431.08 4304.68 429.98 4297.64 427.78C4290.6 425.58 4284.81 422.207 4280.26 417.66C4275.86 412.967 4272.56 406.953 4270.36 399.62C4268.31 392.14 4267.28 383.267 4267.28 373C4267.28 362.587 4268.31 353.713 4270.36 346.38C4272.56 338.9 4275.86 332.887 4280.26 328.34C4284.81 323.647 4290.6 320.273 4297.64 318.22C4304.68 316.02 4313.19 314.92 4323.16 314.92C4333.13 314.92 4341.64 316.02 4348.68 318.22C4355.72 320.273 4361.44 323.647 4365.84 328.34C4370.39 332.887 4373.69 338.9 4375.74 346.38C4377.79 353.713 4378.82 362.587 4378.82 373C4378.82 383.267 4377.79 392.14 4375.74 399.62C4373.69 406.953 4370.39 412.967 4365.84 417.66C4361.44 422.207 4355.72 425.58 4348.68 427.78C4341.64 429.98 4333.13 431.08 4323.16 431.08ZM4308.86 401.6H4328.44C4331.96 401.6 4334.31 401.233 4335.48 400.5C4336.8 399.62 4337.46 398.007 4337.46 395.66V344.4H4317.88C4314.36 344.4 4311.94 344.84 4310.62 345.72C4309.45 346.453 4308.86 347.993 4308.86 350.34V401.6ZM4450.99 431.08C4441.02 431.08 4432.51 429.98 4425.47 427.78C4418.43 425.58 4412.64 422.207 4408.09 417.66C4403.69 412.967 4400.39 406.953 4398.19 399.62C4396.14 392.14 4395.11 383.267 4395.11 373C4395.11 362.587 4396.14 353.713 4398.19 346.38C4400.39 338.9 4403.69 332.887 4408.09 328.34C4412.64 323.647 4418.43 320.273 4425.47 318.22C4432.51 316.02 4441.02 314.92 4450.99 314.92C4460.97 314.92 4469.47 316.02 4476.51 318.22C4483.55 320.273 4489.27 323.647 4493.67 328.34C4498.22 332.887 4501.52 338.9 4503.57 346.38C4505.63 353.713 4506.65 362.587 4506.65 373C4506.65 383.267 4505.63 392.14 4503.57 399.62C4501.52 406.953 4498.22 412.967 4493.67 417.66C4489.27 422.207 4483.55 425.58 4476.51 427.78C4469.47 429.98 4460.97 431.08 4450.99 431.08ZM4436.69 401.6H4456.27C4459.79 401.6 4462.14 401.233 4463.31 400.5C4464.63 399.62 4465.29 398.007 4465.29 395.66V344.4H4445.71C4442.19 344.4 4439.77 344.84 4438.45 345.72C4437.28 346.453 4436.69 347.993 4436.69 350.34V401.6ZM4547.14 318L4558.14 333.18C4562.98 328.34 4568.04 324.453 4573.32 321.52C4578.6 318.44 4584.18 316.167 4590.04 314.7L4592.68 352.32C4590.34 352.613 4587.4 353.347 4583.88 354.52C4580.36 355.693 4577.06 357.013 4573.98 358.48C4570.9 359.8 4568.48 361.12 4566.72 362.44V428H4528V318H4547.14ZM4654.12 428V290.5H4692.84V396.1H4736.62V428H4654.12ZM4802.05 431.08C4792.07 431.08 4783.57 429.98 4776.53 427.78C4769.49 425.58 4763.69 422.207 4759.15 417.66C4754.75 412.967 4751.45 406.953 4749.25 399.62C4747.19 392.14 4746.17 383.267 4746.17 373C4746.17 362.587 4747.19 353.713 4749.25 346.38C4751.45 338.9 4754.75 332.887 4759.15 328.34C4763.69 323.647 4769.49 320.273 4776.53 318.22C4783.57 316.02 4792.07 314.92 4802.05 314.92C4812.02 314.92 4820.53 316.02 4827.57 318.22C4834.61 320.273 4840.33 323.647 4844.73 328.34C4849.27 332.887 4852.57 338.9 4854.63 346.38C4856.68 353.713 4857.71 362.587 4857.71 373C4857.71 383.267 4856.68 392.14 4854.63 399.62C4852.57 406.953 4849.27 412.967 4844.73 417.66C4840.33 422.207 4834.61 425.58 4827.57 427.78C4820.53 429.98 4812.02 431.08 4802.05 431.08ZM4787.75 401.6H4807.33C4810.85 401.6 4813.19 401.233 4814.37 400.5C4815.69 399.62 4816.35 398.007 4816.35 395.66V344.4H4796.77C4793.25 344.4 4790.83 344.84 4789.51 345.72C4788.33 346.453 4787.75 347.993 4787.75 350.34V401.6ZM4921.74 431.08C4913.23 431.08 4905.97 430.053 4899.96 428C4893.95 425.8 4889.03 422.353 4885.22 417.66C4881.41 412.967 4878.55 406.953 4876.64 399.62C4874.88 392.287 4874 383.413 4874 373C4874 362.587 4874.88 353.713 4876.64 346.38C4878.55 338.9 4881.41 332.887 4885.22 328.34C4889.03 323.647 4893.95 320.273 4899.96 318.22C4905.97 316.02 4913.23 314.92 4921.74 314.92C4925.99 314.92 4930.47 315.14 4935.16 315.58C4940 316.02 4944.55 316.533 4948.8 317.12C4953.05 317.707 4956.43 318.44 4958.92 319.32L4955.4 346.6C4951.59 345.427 4947.7 344.62 4943.74 344.18C4939.93 343.74 4935.82 343.52 4931.42 343.52C4925.55 343.52 4921.45 344.767 4919.1 347.26C4916.75 349.753 4915.58 354.08 4915.58 360.24V401.16C4918.51 402.04 4923.13 402.48 4929.44 402.48C4934.43 402.48 4939.19 402.04 4943.74 401.16C4948.29 400.133 4952.91 398.667 4957.6 396.76L4961.12 423.82C4955.25 426.167 4948.95 427.927 4942.2 429.1C4935.6 430.42 4928.78 431.08 4921.74 431.08ZM5009.34 431.08C4996.29 431.08 4986.76 428.22 4980.74 422.5C4974.88 416.633 4971.94 407.393 4971.94 394.78C4971.94 387.887 4972.9 382.167 4974.8 377.62C4976.86 372.927 4980.08 369.187 4984.48 366.4C4989.03 363.613 4995.12 361.633 5002.74 360.46C5010.52 359.287 5020.12 358.7 5031.56 358.7H5044.1V378.94H5023.42C5017.41 378.94 5013.23 379.673 5010.88 381.14C5008.68 382.46 5007.58 385.027 5007.58 388.84V404.46H5021.66C5027.68 404.46 5031.78 403.8 5033.98 402.48C5036.33 401.16 5037.5 398.667 5037.5 395V344.84C5034.42 343.96 5029.8 343.52 5023.64 343.52C5017.34 343.52 5010.66 343.96 5003.62 344.84C4996.73 345.72 4989.4 347.187 4981.62 349.24L4977 322.18C4982.14 320.567 4987.49 319.247 4993.06 318.22C4998.64 317.047 5004.36 316.24 5010.22 315.8C5016.24 315.213 5022.18 314.92 5028.04 314.92C5039.34 314.92 5048.5 316.24 5055.54 318.88C5062.58 321.373 5067.79 325.333 5071.16 330.76C5074.54 336.04 5076.22 343.007 5076.22 351.66V428H5057.08L5047.18 417C5041.76 421.547 5035.82 425.067 5029.36 427.56C5023.06 429.907 5016.38 431.08 5009.34 431.08ZM5139.49 400.28C5141.54 400.573 5143.45 400.867 5145.21 401.16C5146.97 401.307 5148.65 401.453 5150.27 401.6L5148.29 427.78C5144.33 428.807 5140.51 429.613 5136.85 430.2C5133.18 430.787 5129.66 431.08 5126.29 431.08C5117.63 431.08 5111.18 429.32 5106.93 425.8C5102.82 422.133 5100.77 416.487 5100.77 408.86V285L5139.49 281.7V400.28ZM5167.16 322.62L5205.88 317.56V428H5167.16V322.62ZM5186.52 306.34C5178.46 306.34 5172.88 304.947 5169.8 302.16C5166.87 299.227 5165.4 293.727 5165.4 285.66C5165.4 277.447 5166.87 271.873 5169.8 268.94C5172.88 266.007 5178.46 264.54 5186.52 264.54C5194.44 264.54 5199.87 266.007 5202.8 268.94C5205.74 271.873 5207.2 277.447 5207.2 285.66C5207.2 293.727 5205.81 299.227 5203.02 302.16C5200.24 304.947 5194.74 306.34 5186.52 306.34ZM5274.73 347.26L5273.85 345.94H5232.93L5230.29 318H5323.35V339.34L5275.39 398.74L5276.05 400.06H5324.23V428H5226.77V406.66L5274.73 347.26ZM5376.73 431.08C5363.67 431.08 5354.14 428.22 5348.13 422.5C5342.26 416.633 5339.33 407.393 5339.33 394.78C5339.33 387.887 5340.28 382.167 5342.19 377.62C5344.24 372.927 5347.47 369.187 5351.87 366.4C5356.41 363.613 5362.5 361.633 5370.13 360.46C5377.9 359.287 5387.51 358.7 5398.95 358.7H5411.49V378.94H5390.81C5384.79 378.94 5380.61 379.673 5378.27 381.14C5376.07 382.46 5374.97 385.027 5374.97 388.84V404.46H5389.05C5395.06 404.46 5399.17 403.8 5401.37 402.48C5403.71 401.16 5404.89 398.667 5404.89 395V344.84C5401.81 343.96 5397.19 343.52 5391.03 343.52C5384.72 343.52 5378.05 343.96 5371.01 344.84C5364.11 345.72 5356.78 347.187 5349.01 349.24L5344.39 322.18C5349.52 320.567 5354.87 319.247 5360.45 318.22C5366.02 317.047 5371.74 316.24 5377.61 315.8C5383.62 315.213 5389.56 314.92 5395.43 314.92C5406.72 314.92 5415.89 316.24 5422.93 318.88C5429.97 321.373 5435.17 325.333 5438.55 330.76C5441.92 336.04 5443.61 343.007 5443.61 351.66V428H5424.47L5414.57 417C5409.14 421.547 5403.2 425.067 5396.75 427.56C5390.44 429.907 5383.77 431.08 5376.73 431.08ZM5498.95 431.08C5490.3 431.08 5483.84 429.32 5479.59 425.8C5475.48 422.133 5473.43 416.487 5473.43 408.86V299.08L5512.15 289.4V400.28C5514.5 400.573 5516.77 400.867 5518.97 401.16C5521.17 401.307 5523.44 401.453 5525.79 401.6L5524.03 427.78C5519.04 428.953 5514.42 429.76 5510.17 430.2C5506.06 430.787 5502.32 431.08 5498.95 431.08ZM5461.33 343.3V318H5528.43V343.3H5461.33ZM5548.3 322.62L5587.02 317.56V428H5548.3V322.62ZM5567.66 306.34C5559.59 306.34 5554.02 304.947 5550.94 302.16C5548 299.227 5546.54 293.727 5546.54 285.66C5546.54 277.447 5548 271.873 5550.94 268.94C5554.02 266.007 5559.59 264.54 5567.66 264.54C5575.58 264.54 5581 266.007 5583.94 268.94C5586.87 271.873 5588.34 277.447 5588.34 285.66C5588.34 293.727 5586.94 299.227 5584.16 302.16C5581.37 304.947 5575.87 306.34 5567.66 306.34ZM5664 431.08C5654.03 431.08 5645.52 429.98 5638.48 427.78C5631.44 425.58 5625.65 422.207 5621.1 417.66C5616.7 412.967 5613.4 406.953 5611.2 399.62C5609.15 392.14 5608.12 383.267 5608.12 373C5608.12 362.587 5609.15 353.713 5611.2 346.38C5613.4 338.9 5616.7 332.887 5621.1 328.34C5625.65 323.647 5631.44 320.273 5638.48 318.22C5645.52 316.02 5654.03 314.92 5664 314.92C5673.97 314.92 5682.48 316.02 5689.52 318.22C5696.56 320.273 5702.28 323.647 5706.68 328.34C5711.23 332.887 5714.53 338.9 5716.58 346.38C5718.63 353.713 5719.66 362.587 5719.66 373C5719.66 383.267 5718.63 392.14 5716.58 399.62C5714.53 406.953 5711.23 412.967 5706.68 417.66C5702.28 422.207 5696.56 425.58 5689.52 427.78C5682.48 429.98 5673.97 431.08 5664 431.08ZM5649.7 401.6H5669.28C5672.8 401.6 5675.15 401.233 5676.32 400.5C5677.64 399.62 5678.3 398.007 5678.3 395.66V344.4H5658.72C5655.2 344.4 5652.78 344.84 5651.46 345.72C5650.29 346.453 5649.7 347.993 5649.7 350.34V401.6ZM5741.01 428V318H5760.15L5769.83 329C5776.14 324.307 5782.89 320.787 5790.07 318.44C5797.26 316.093 5804.96 314.92 5813.17 314.92C5823.59 314.92 5831.58 317.047 5837.15 321.3C5842.87 325.407 5845.73 331.2 5845.73 338.68V428H5807.01V346.82H5790.73C5786.63 346.82 5783.77 347.407 5782.15 348.58C5780.54 349.753 5779.73 351.733 5779.73 354.52V428H5741.01ZM1123.67 642.14C1130.86 644.193 1138.19 645.807 1145.67 646.98C1153.15 648.153 1160.56 648.74 1167.89 648.74C1171.71 648.74 1175.08 648.667 1178.01 648.52C1180.95 648.373 1184.1 648.007 1187.47 647.42V628.5L1167.45 626.74C1158.65 626.007 1151.17 624.76 1145.01 623C1139 621.093 1134.16 618.527 1130.49 615.3C1126.83 611.927 1124.19 607.82 1122.57 602.98C1120.96 597.993 1120.15 591.98 1120.15 584.94C1120.15 573.207 1121.77 563.893 1124.99 557C1128.22 549.96 1133.65 544.9 1141.27 541.82C1148.9 538.74 1159.09 537.2 1171.85 537.2C1180.36 537.2 1188.79 537.713 1197.15 538.74C1205.51 539.767 1213.73 541.233 1221.79 543.14L1216.95 574.16C1209.62 572.693 1203.17 571.667 1197.59 571.08C1192.02 570.347 1186.23 569.98 1180.21 569.98C1175.96 569.98 1172.51 570.053 1169.87 570.2C1167.38 570.347 1164.67 570.64 1161.73 571.08V590L1179.77 591.54C1191.51 592.713 1200.97 594.987 1208.15 598.36C1215.49 601.587 1220.77 606.28 1223.99 612.44C1227.37 618.453 1229.05 626.227 1229.05 635.76C1229.05 646.467 1227.07 655.193 1223.11 661.94C1219.3 668.54 1213.21 673.453 1204.85 676.68C1196.49 679.76 1185.71 681.3 1172.51 681.3C1162.69 681.3 1153.23 680.713 1144.13 679.54C1135.19 678.367 1126.53 676.533 1118.17 674.04L1123.67 642.14ZM1248.74 572.62L1287.46 567.56V678H1248.74V572.62ZM1268.1 556.34C1260.03 556.34 1254.46 554.947 1251.38 552.16C1248.44 549.227 1246.98 543.727 1246.98 535.66C1246.98 527.447 1248.44 521.873 1251.38 518.94C1254.46 516.007 1260.03 514.54 1268.1 514.54C1276.02 514.54 1281.44 516.007 1284.38 518.94C1287.31 521.873 1288.78 527.447 1288.78 535.66C1288.78 543.727 1287.38 549.227 1284.6 552.16C1281.81 554.947 1276.31 556.34 1268.1 556.34ZM1313.62 678V568H1332.76L1342.44 579C1348.6 574.307 1355.13 570.787 1362.02 568.44C1368.91 566.093 1376.1 564.92 1383.58 564.92C1393.99 564.92 1401.99 567.047 1407.56 571.3C1413.28 575.407 1416.14 581.2 1416.14 588.68V678H1377.42V596.82H1363.34C1359.23 596.82 1356.37 597.407 1354.76 598.58C1353.15 599.753 1352.34 601.733 1352.34 604.52V678H1313.62ZM1377.42 678V568L1406.24 579C1412.4 574.307 1418.93 570.787 1425.82 568.44C1432.71 566.093 1439.9 564.92 1447.38 564.92C1457.79 564.92 1465.79 567.047 1471.36 571.3C1477.08 575.407 1479.94 581.2 1479.94 588.68V678H1441.22V596.82H1427.14C1423.03 596.82 1420.17 597.407 1418.56 598.58C1416.95 599.753 1416.14 601.733 1416.14 604.52V678H1377.42ZM1608.67 568V678H1589.53L1579.63 667C1573.47 671.693 1566.72 675.213 1559.39 677.56C1552.05 679.907 1544.21 681.08 1535.85 681.08C1524.85 681.08 1516.78 678.733 1511.65 674.04C1506.51 669.2 1503.95 661.573 1503.95 651.16V568H1542.67V654.46H1558.95C1563.05 654.46 1565.91 653.873 1567.53 652.7C1569.14 651.527 1569.95 649.547 1569.95 646.76V568H1608.67ZM1673.09 650.28C1675.14 650.573 1677.05 650.867 1678.81 651.16C1680.57 651.307 1682.26 651.453 1683.87 651.6L1681.89 677.78C1677.93 678.807 1674.12 679.613 1670.45 680.2C1666.78 680.787 1663.26 681.08 1659.89 681.08C1651.24 681.08 1644.78 679.32 1640.53 675.8C1636.42 672.133 1634.37 666.487 1634.37 658.86V535L1673.09 531.7V650.28ZM1732.01 681.08C1718.96 681.08 1709.42 678.22 1703.41 672.5C1697.54 666.633 1694.61 657.393 1694.61 644.78C1694.61 637.887 1695.56 632.167 1697.47 627.62C1699.52 622.927 1702.75 619.187 1707.15 616.4C1711.7 613.613 1717.78 611.633 1725.41 610.46C1733.18 609.287 1742.79 608.7 1754.23 608.7H1766.77V628.94H1746.09C1740.08 628.94 1735.9 629.673 1733.55 631.14C1731.35 632.46 1730.25 635.027 1730.25 638.84V654.46H1744.33C1750.34 654.46 1754.45 653.8 1756.65 652.48C1759 651.16 1760.17 648.667 1760.17 645V594.84C1757.09 593.96 1752.47 593.52 1746.31 593.52C1740 593.52 1733.33 593.96 1726.29 594.84C1719.4 595.72 1712.06 597.187 1704.29 599.24L1699.67 572.18C1704.8 570.567 1710.16 569.247 1715.73 568.22C1721.3 567.047 1727.02 566.24 1732.89 565.8C1738.9 565.213 1744.84 564.92 1750.71 564.92C1762 564.92 1771.17 566.24 1778.21 568.88C1785.25 571.373 1790.46 575.333 1793.83 580.76C1797.2 586.04 1798.89 593.007 1798.89 601.66V678H1779.75L1769.85 667C1764.42 671.547 1758.48 675.067 1752.03 677.56C1745.72 679.907 1739.05 681.08 1732.01 681.08ZM1854.23 681.08C1845.58 681.08 1839.13 679.32 1834.87 675.8C1830.77 672.133 1828.71 666.487 1828.71 658.86V549.08L1867.43 539.4V650.28C1869.78 650.573 1872.05 650.867 1874.25 651.16C1876.45 651.307 1878.73 651.453 1881.07 651.6L1879.31 677.78C1874.33 678.953 1869.71 679.76 1865.45 680.2C1861.35 680.787 1857.61 681.08 1854.23 681.08ZM1816.61 593.3V568H1883.71V593.3H1816.61ZM1954.4 681.08C1944.43 681.08 1935.92 679.98 1928.88 677.78C1921.84 675.58 1916.05 672.207 1911.5 667.66C1907.1 662.967 1903.8 656.953 1901.6 649.62C1899.55 642.14 1898.52 633.267 1898.52 623C1898.52 612.587 1899.55 603.713 1901.6 596.38C1903.8 588.9 1907.1 582.887 1911.5 578.34C1916.05 573.647 1921.84 570.273 1928.88 568.22C1935.92 566.02 1944.43 564.92 1954.4 564.92C1964.37 564.92 1972.88 566.02 1979.92 568.22C1986.96 570.273 1992.68 573.647 1997.08 578.34C2001.63 582.887 2004.93 588.9 2006.98 596.38C2009.03 603.713 2010.06 612.587 2010.06 623C2010.06 633.267 2009.03 642.14 2006.98 649.62C2004.93 656.953 2001.63 662.967 1997.08 667.66C1992.68 672.207 1986.96 675.58 1979.92 677.78C1972.88 679.98 1964.37 681.08 1954.4 681.08ZM1940.1 651.6H1959.68C1963.2 651.6 1965.55 651.233 1966.72 650.5C1968.04 649.62 1968.7 648.007 1968.7 645.66V594.4H1949.12C1945.6 594.4 1943.18 594.84 1941.86 595.72C1940.69 596.453 1940.1 597.993 1940.1 600.34V651.6ZM2050.55 568L2061.55 583.18C2066.39 578.34 2071.45 574.453 2076.73 571.52C2082.01 568.44 2087.59 566.167 2093.45 564.7L2096.09 602.32C2093.75 602.613 2090.81 603.347 2087.29 604.52C2083.77 605.693 2080.47 607.013 2077.39 608.48C2074.31 609.8 2071.89 611.12 2070.13 612.44V678H2031.41V568H2050.55ZM2240.47 678L2217.81 568H2246.19L2261.15 644.34H2263.35L2276.55 568H2314.39L2292.17 678H2240.47ZM2167.43 678L2145.21 568H2183.05L2196.25 644.34H2198.45L2213.19 568H2241.79L2218.91 678H2167.43ZM2328.33 572.62L2367.05 567.56V678H2328.33V572.62ZM2347.69 556.34C2339.62 556.34 2334.05 554.947 2330.97 552.16C2328.03 549.227 2326.57 543.727 2326.57 535.66C2326.57 527.447 2328.03 521.873 2330.97 518.94C2334.05 516.007 2339.62 514.54 2347.69 514.54C2355.61 514.54 2361.03 516.007 2363.97 518.94C2366.9 521.873 2368.37 527.447 2368.37 535.66C2368.37 543.727 2366.97 549.227 2364.19 552.16C2361.4 554.947 2355.9 556.34 2347.69 556.34ZM2423.57 681.08C2414.92 681.08 2408.46 679.32 2404.21 675.8C2400.1 672.133 2398.05 666.487 2398.05 658.86V549.08L2436.77 539.4V650.28C2439.12 650.573 2441.39 650.867 2443.59 651.16C2445.79 651.307 2448.06 651.453 2450.41 651.6L2448.65 677.78C2443.66 678.953 2439.04 679.76 2434.79 680.2C2430.68 680.787 2426.94 681.08 2423.57 681.08ZM2385.95 593.3V568H2453.05V593.3H2385.95ZM2472.92 678V534.56L2510.76 531.7V572.84C2515.45 570.053 2520.66 568.073 2526.38 566.9C2532.24 565.58 2538.48 564.92 2545.08 564.92C2555.49 564.92 2563.48 567.047 2569.06 571.3C2574.78 575.407 2577.64 581.2 2577.64 588.68V678H2538.92V596.82H2527.48C2521.46 596.82 2517.28 597.553 2514.94 599.02C2512.74 600.487 2511.64 603.127 2511.64 606.94V678H2472.92ZM2649.3 540.5H2707.6C2720.07 540.5 2730.26 541.6 2738.18 543.8C2746.25 545.853 2752.63 549.447 2757.32 554.58C2762.02 559.567 2765.32 566.533 2767.22 575.48C2769.13 584.427 2770.08 595.72 2770.08 609.36C2770.08 622.853 2769.13 634.073 2767.22 643.02C2765.32 651.967 2762.02 659.007 2757.32 664.14C2752.63 669.273 2746.25 672.867 2738.18 674.92C2730.26 676.973 2720.07 678 2707.6 678H2649.3V540.5ZM2688.02 570.86V647.64H2711.34C2717.8 647.64 2722.27 646.613 2724.76 644.56C2727.26 642.36 2728.5 638.547 2728.5 633.12V585.38C2728.5 579.953 2727.26 576.213 2724.76 574.16C2722.27 571.96 2717.8 570.86 2711.34 570.86H2688.02ZM2805.38 668.1L2779.64 568H2817.48L2833.32 634.22H2835.52L2851.58 568H2889.42L2863.46 668.1H2805.38ZM2807.14 717.38C2803.03 717.38 2798.78 717.087 2794.38 716.5C2789.98 715.913 2786.02 715.107 2782.5 714.08L2784.26 693.62L2808.02 690.76C2812.42 690.173 2815.79 689.293 2818.14 688.12C2820.49 686.947 2822.25 685.04 2823.42 682.4C2824.74 679.76 2825.99 676.093 2827.16 671.4L2827.82 668.1H2863.46C2860.53 680.42 2856.71 690.173 2852.02 697.36C2847.47 704.547 2841.61 709.68 2834.42 712.76C2827.38 715.84 2818.29 717.38 2807.14 717.38ZM2903.25 678V568H2922.39L2932.07 579C2938.38 574.307 2945.12 570.787 2952.31 568.44C2959.5 566.093 2967.2 564.92 2975.41 564.92C2985.82 564.92 2993.82 567.047 2999.39 571.3C3005.11 575.407 3007.97 581.2 3007.97 588.68V678H2969.25V596.82H2952.97C2948.86 596.82 2946 597.407 2944.39 598.58C2942.78 599.753 2941.97 601.733 2941.97 604.52V678H2903.25ZM3064.25 681.08C3051.2 681.08 3041.67 678.22 3035.65 672.5C3029.79 666.633 3026.85 657.393 3026.85 644.78C3026.85 637.887 3027.81 632.167 3029.71 627.62C3031.77 622.927 3034.99 619.187 3039.39 616.4C3043.94 613.613 3050.03 611.633 3057.65 610.46C3065.43 609.287 3075.03 608.7 3086.47 608.7H3099.01V628.94H3078.33C3072.32 628.94 3068.14 629.673 3065.79 631.14C3063.59 632.46 3062.49 635.027 3062.49 638.84V654.46H3076.57C3082.59 654.46 3086.69 653.8 3088.89 652.48C3091.24 651.16 3092.41 648.667 3092.41 645V594.84C3089.33 593.96 3084.71 593.52 3078.55 593.52C3072.25 593.52 3065.57 593.96 3058.53 594.84C3051.64 595.72 3044.31 597.187 3036.53 599.24L3031.91 572.18C3037.05 570.567 3042.4 569.247 3047.97 568.22C3053.55 567.047 3059.27 566.24 3065.13 565.8C3071.15 565.213 3077.09 564.92 3082.95 564.92C3094.25 564.92 3103.41 566.24 3110.45 568.88C3117.49 571.373 3122.7 575.333 3126.07 580.76C3129.45 586.04 3131.13 593.007 3131.13 601.66V678H3111.99L3102.09 667C3096.67 671.547 3090.73 675.067 3084.27 677.56C3077.97 679.907 3071.29 681.08 3064.25 681.08ZM3156.12 678V568H3175.26L3184.94 579C3191.1 574.307 3197.63 570.787 3204.52 568.44C3211.41 566.093 3218.6 564.92 3226.08 564.92C3236.49 564.92 3244.49 567.047 3250.06 571.3C3255.78 575.407 3258.64 581.2 3258.64 588.68V678H3219.92V596.82H3205.84C3201.73 596.82 3198.87 597.407 3197.26 598.58C3195.65 599.753 3194.84 601.733 3194.84 604.52V678H3156.12ZM3219.92 678V568L3248.74 579C3254.9 574.307 3261.43 570.787 3268.32 568.44C3275.21 566.093 3282.4 564.92 3289.88 564.92C3300.29 564.92 3308.29 567.047 3313.86 571.3C3319.58 575.407 3322.44 581.2 3322.44 588.68V678H3283.72V596.82H3269.64C3265.53 596.82 3262.67 597.407 3261.06 598.58C3259.45 599.753 3258.64 601.733 3258.64 604.52V678H3219.92ZM3347.55 572.62L3386.27 567.56V678H3347.55V572.62ZM3366.91 556.34C3358.84 556.34 3353.27 554.947 3350.19 552.16C3347.25 549.227 3345.79 543.727 3345.79 535.66C3345.79 527.447 3347.25 521.873 3350.19 518.94C3353.27 516.007 3358.84 514.54 3366.91 514.54C3374.83 514.54 3380.25 516.007 3383.19 518.94C3386.12 521.873 3387.59 527.447 3387.59 535.66C3387.59 543.727 3386.19 549.227 3383.41 552.16C3380.62 554.947 3375.12 556.34 3366.91 556.34ZM3455.11 681.08C3446.6 681.08 3439.34 680.053 3433.33 678C3427.32 675.8 3422.4 672.353 3418.59 667.66C3414.78 662.967 3411.92 656.953 3410.01 649.62C3408.25 642.287 3407.37 633.413 3407.37 623C3407.37 612.587 3408.25 603.713 3410.01 596.38C3411.92 588.9 3414.78 582.887 3418.59 578.34C3422.4 573.647 3427.32 570.273 3433.33 568.22C3439.34 566.02 3446.6 564.92 3455.11 564.92C3459.36 564.92 3463.84 565.14 3468.53 565.58C3473.37 566.02 3477.92 566.533 3482.17 567.12C3486.42 567.707 3489.8 568.44 3492.29 569.32L3488.77 596.6C3484.96 595.427 3481.07 594.62 3477.11 594.18C3473.3 593.74 3469.19 593.52 3464.79 593.52C3458.92 593.52 3454.82 594.767 3452.47 597.26C3450.12 599.753 3448.95 604.08 3448.95 610.24V651.16C3451.88 652.04 3456.5 652.48 3462.81 652.48C3467.8 652.48 3472.56 652.04 3477.11 651.16C3481.66 650.133 3486.28 648.667 3490.97 646.76L3494.49 673.82C3488.62 676.167 3482.32 677.927 3475.57 679.1C3468.97 680.42 3462.15 681.08 3455.11 681.08ZM3596.81 623.44V646.1H3650.49V678H3558.09V540.5H3651.15L3646.31 572.4H3596.81V595.06H3642.57V623.44H3596.81ZM3672.17 678V568H3691.31L3700.99 579C3707.3 574.307 3714.05 570.787 3721.23 568.44C3728.42 566.093 3736.12 564.92 3744.33 564.92C3754.75 564.92 3762.74 567.047 3768.31 571.3C3774.03 575.407 3776.89 581.2 3776.89 588.68V678H3738.17V596.82H3721.89C3717.79 596.82 3714.93 597.407 3713.31 598.58C3711.7 599.753 3710.89 601.733 3710.89 604.52V678H3672.17ZM3789.62 568H3827.46L3844.4 644.34H3846.6L3863.76 568H3901.6L3874.54 678H3816.46L3789.62 568ZM3915.38 572.62L3954.1 567.56V678H3915.38V572.62ZM3934.74 556.34C3926.67 556.34 3921.1 554.947 3918.02 552.16C3915.08 549.227 3913.62 543.727 3913.62 535.66C3913.62 527.447 3915.08 521.873 3918.02 518.94C3921.1 516.007 3926.67 514.54 3934.74 514.54C3942.66 514.54 3948.08 516.007 3951.02 518.94C3953.95 521.873 3955.42 527.447 3955.42 535.66C3955.42 543.727 3954.02 549.227 3951.24 552.16C3948.45 554.947 3942.95 556.34 3934.74 556.34ZM3999.4 568L4010.4 583.18C4015.24 578.34 4020.3 574.453 4025.58 571.52C4030.86 568.44 4036.43 566.167 4042.3 564.7L4044.94 602.32C4042.59 602.613 4039.66 603.347 4036.14 604.52C4032.62 605.693 4029.32 607.013 4026.24 608.48C4023.16 609.8 4020.74 611.12 4018.98 612.44V678H3980.26V568H3999.4ZM4110.57 681.08C4100.6 681.08 4092.09 679.98 4085.05 677.78C4078.01 675.58 4072.22 672.207 4067.67 667.66C4063.27 662.967 4059.97 656.953 4057.77 649.62C4055.72 642.14 4054.69 633.267 4054.69 623C4054.69 612.587 4055.72 603.713 4057.77 596.38C4059.97 588.9 4063.27 582.887 4067.67 578.34C4072.22 573.647 4078.01 570.273 4085.05 568.22C4092.09 566.02 4100.6 564.92 4110.57 564.92C4120.55 564.92 4129.05 566.02 4136.09 568.22C4143.13 570.273 4148.85 573.647 4153.25 578.34C4157.8 582.887 4161.1 588.9 4163.15 596.38C4165.21 603.713 4166.23 612.587 4166.23 623C4166.23 633.267 4165.21 642.14 4163.15 649.62C4161.1 656.953 4157.8 662.967 4153.25 667.66C4148.85 672.207 4143.13 675.58 4136.09 677.78C4129.05 679.98 4120.55 681.08 4110.57 681.08ZM4096.27 651.6H4115.85C4119.37 651.6 4121.72 651.233 4122.89 650.5C4124.21 649.62 4124.87 648.007 4124.87 645.66V594.4H4105.29C4101.77 594.4 4099.35 594.84 4098.03 595.72C4096.86 596.453 4096.27 597.993 4096.27 600.34V651.6ZM4187.58 678V568H4206.72L4216.4 579C4222.71 574.307 4229.46 570.787 4236.64 568.44C4243.83 566.093 4251.53 564.92 4259.74 564.92C4270.16 564.92 4278.15 567.047 4283.72 571.3C4289.44 575.407 4292.3 581.2 4292.3 588.68V678H4253.58V596.82H4237.3C4233.2 596.82 4230.34 597.407 4228.72 598.58C4227.11 599.753 4226.3 601.733 4226.3 604.52V678H4187.58ZM4317.35 678V568H4336.49L4346.17 579C4352.33 574.307 4358.86 570.787 4365.75 568.44C4372.64 566.093 4379.83 564.92 4387.31 564.92C4397.72 564.92 4405.72 567.047 4411.29 571.3C4417.01 575.407 4419.87 581.2 4419.87 588.68V678H4381.15V596.82H4367.07C4362.96 596.82 4360.1 597.407 4358.49 598.58C4356.88 599.753 4356.07 601.733 4356.07 604.52V678H4317.35ZM4381.15 678V568L4409.97 579C4416.13 574.307 4422.66 570.787 4429.55 568.44C4436.44 566.093 4443.63 564.92 4451.11 564.92C4461.52 564.92 4469.52 567.047 4475.09 571.3C4480.81 575.407 4483.67 581.2 4483.67 588.68V678H4444.95V596.82H4430.87C4426.76 596.82 4423.9 597.407 4422.29 598.58C4420.68 599.753 4419.87 601.733 4419.87 604.52V678H4381.15ZM4558.28 681.08C4548.74 681.08 4540.53 679.98 4533.64 677.78C4526.74 675.58 4521.1 672.133 4516.7 667.44C4512.3 662.747 4509 656.733 4506.8 649.4C4504.74 642.067 4503.72 633.267 4503.72 623C4503.72 609.213 4505.62 598.067 4509.44 589.56C4513.4 581.053 4519.41 574.82 4527.48 570.86C4535.69 566.9 4546.25 564.92 4559.16 564.92C4572.06 564.92 4582.11 566.02 4589.3 568.22C4596.48 570.42 4601.54 574.16 4604.48 579.44C4607.56 584.72 4609.1 591.98 4609.1 601.22C4609.1 608.113 4608 613.907 4605.8 618.6C4603.74 623.147 4600.3 626.813 4595.46 629.6C4590.62 632.387 4584.09 634.367 4575.88 635.54C4567.66 636.713 4557.47 637.3 4545.3 637.3H4538.7V617.06H4558.28C4564.29 617.06 4568.4 616.4 4570.6 615.08C4572.94 613.613 4574.12 610.973 4574.12 607.16V593.52H4561.14C4555.12 593.52 4550.94 594.18 4548.6 595.5C4546.4 596.82 4545.3 599.313 4545.3 602.98V651.16C4547.35 651.6 4549.7 651.967 4552.34 652.26C4555.12 652.407 4558.57 652.48 4562.68 652.48C4568.84 652.48 4575.07 652.04 4581.38 651.16C4587.68 650.133 4594.36 648.667 4601.4 646.76L4606.24 673.82C4599.05 676.167 4591.42 677.927 4583.36 679.1C4575.29 680.42 4566.93 681.08 4558.28 681.08ZM4632.74 678V568H4651.88L4661.56 579C4667.87 574.307 4674.61 570.787 4681.8 568.44C4688.99 566.093 4696.69 564.92 4704.9 564.92C4715.31 564.92 4723.31 567.047 4728.88 571.3C4734.6 575.407 4737.46 581.2 4737.46 588.68V678H4698.74V596.82H4682.46C4678.35 596.82 4675.49 597.407 4673.88 598.58C4672.27 599.753 4671.46 601.733 4671.46 604.52V678H4632.74ZM4792.87 681.08C4784.21 681.08 4777.76 679.32 4773.51 675.8C4769.4 672.133 4767.35 666.487 4767.35 658.86V549.08L4806.07 539.4V650.28C4808.41 650.573 4810.69 650.867 4812.89 651.16C4815.09 651.307 4817.36 651.453 4819.71 651.6L4817.95 677.78C4812.96 678.953 4808.34 679.76 4804.09 680.2C4799.98 680.787 4796.24 681.08 4792.87 681.08ZM4755.25 593.3V568H4822.35V593.3H4755.25ZM4885.53 678L4894.11 540.5H4943.17L4963.63 618.38H4965.17L4985.63 540.5H5034.91L5043.49 678H5004.99L5000.59 601.22H4999.05L4979.25 678H4949.55L4929.53 601.22H4928.21L4924.03 678H4885.53ZM5117.12 681.08C5107.14 681.08 5098.64 679.98 5091.6 677.78C5084.56 675.58 5078.76 672.207 5074.22 667.66C5069.82 662.967 5066.52 656.953 5064.32 649.62C5062.26 642.14 5061.24 633.267 5061.24 623C5061.24 612.587 5062.26 603.713 5064.32 596.38C5066.52 588.9 5069.82 582.887 5074.22 578.34C5078.76 573.647 5084.56 570.273 5091.6 568.22C5098.64 566.02 5107.14 564.92 5117.12 564.92C5127.09 564.92 5135.6 566.02 5142.64 568.22C5149.68 570.273 5155.4 573.647 5159.8 578.34C5164.34 582.887 5167.64 588.9 5169.7 596.38C5171.75 603.713 5172.78 612.587 5172.78 623C5172.78 633.267 5171.75 642.14 5169.7 649.62C5167.64 656.953 5164.34 662.967 5159.8 667.66C5155.4 672.207 5149.68 675.58 5142.64 677.78C5135.6 679.98 5127.09 681.08 5117.12 681.08ZM5102.82 651.6H5122.4C5125.92 651.6 5128.26 651.233 5129.44 650.5C5130.76 649.62 5131.42 648.007 5131.42 645.66V594.4H5111.84C5108.32 594.4 5105.9 594.84 5104.58 595.72C5103.4 596.453 5102.82 597.993 5102.82 600.34V651.6ZM5234.61 564.92C5243.11 564.92 5250.3 566.02 5256.17 568.22C5262.18 570.42 5267.02 573.793 5270.69 578.34C5274.35 582.887 5276.99 588.9 5278.61 596.38C5280.37 603.713 5281.25 612.587 5281.25 623C5281.25 633.56 5280.37 642.58 5278.61 650.06C5276.99 657.393 5274.35 663.407 5270.69 668.1C5267.02 672.647 5262.18 675.947 5256.17 678C5250.3 680.2 5243.11 681.3 5234.61 681.3C5226.39 681.3 5219.43 680.2 5213.71 678C5207.99 675.947 5203.29 672.573 5199.63 667.88C5195.96 663.187 5193.25 657.173 5191.49 649.84C5189.87 642.507 5189.07 633.56 5189.07 623C5189.07 612.587 5189.87 603.713 5191.49 596.38C5193.25 588.9 5195.96 582.887 5199.63 578.34C5203.29 573.647 5207.99 570.273 5213.71 568.22C5219.43 566.02 5226.39 564.92 5234.61 564.92ZM5258.59 594.4H5239.45C5236.07 594.4 5233.73 594.84 5232.41 595.72C5231.23 596.453 5230.65 597.993 5230.65 600.34V651.82H5249.57C5253.09 651.82 5255.43 651.453 5256.61 650.72C5257.93 649.84 5258.59 648.227 5258.59 645.88V594.4ZM5297.31 531.04V678H5278.17L5258.59 650.06V534.12L5297.31 531.04ZM5373.18 681.08C5363.65 681.08 5355.43 679.98 5348.54 677.78C5341.65 675.58 5336 672.133 5331.6 667.44C5327.2 662.747 5323.9 656.733 5321.7 649.4C5319.65 642.067 5318.62 633.267 5318.62 623C5318.62 609.213 5320.53 598.067 5324.34 589.56C5328.3 581.053 5334.31 574.82 5342.38 570.86C5350.59 566.9 5361.15 564.92 5374.06 564.92C5386.97 564.92 5397.01 566.02 5404.2 568.22C5411.39 570.42 5416.45 574.16 5419.38 579.44C5422.46 584.72 5424 591.98 5424 601.22C5424 608.113 5422.9 613.907 5420.7 618.6C5418.65 623.147 5415.2 626.813 5410.36 629.6C5405.52 632.387 5398.99 634.367 5390.78 635.54C5382.57 636.713 5372.37 637.3 5360.2 637.3H5353.6V617.06H5373.18C5379.19 617.06 5383.3 616.4 5385.5 615.08C5387.85 613.613 5389.02 610.973 5389.02 607.16V593.52H5376.04C5370.03 593.52 5365.85 594.18 5363.5 595.5C5361.3 596.82 5360.2 599.313 5360.2 602.98V651.16C5362.25 651.6 5364.6 651.967 5367.24 652.26C5370.03 652.407 5373.47 652.48 5377.58 652.48C5383.74 652.48 5389.97 652.04 5396.28 651.16C5402.59 650.133 5409.26 648.667 5416.3 646.76L5421.14 673.82C5413.95 676.167 5406.33 677.927 5398.26 679.1C5390.19 680.42 5381.83 681.08 5373.18 681.08ZM5485.92 650.28C5487.98 650.573 5489.88 650.867 5491.64 651.16C5493.4 651.307 5495.09 651.453 5496.7 651.6L5494.72 677.78C5490.76 678.807 5486.95 679.613 5483.28 680.2C5479.62 680.787 5476.1 681.08 5472.72 681.08C5464.07 681.08 5457.62 679.32 5453.36 675.8C5449.26 672.133 5447.2 666.487 5447.2 658.86V535L5485.92 531.7V650.28ZM5513.6 572.62L5552.32 567.56V678H5513.6V572.62ZM5532.96 556.34C5524.89 556.34 5519.32 554.947 5516.24 552.16C5513.31 549.227 5511.84 543.727 5511.84 535.66C5511.84 527.447 5513.31 521.873 5516.24 518.94C5519.32 516.007 5524.89 514.54 5532.96 514.54C5540.88 514.54 5546.31 516.007 5549.24 518.94C5552.17 521.873 5553.64 527.447 5553.64 535.66C5553.64 543.727 5552.25 549.227 5549.46 552.16C5546.67 554.947 5541.17 556.34 5532.96 556.34ZM5578.48 678V568H5597.62L5607.3 579C5613.61 574.307 5620.36 570.787 5627.54 568.44C5634.73 566.093 5642.43 564.92 5650.64 564.92C5661.06 564.92 5669.05 567.047 5674.62 571.3C5680.34 575.407 5683.2 581.2 5683.2 588.68V678H5644.48V596.82H5628.2C5624.1 596.82 5621.24 597.407 5619.62 598.58C5618.01 599.753 5617.2 601.733 5617.2 604.52V678H5578.48ZM5751.59 646.32C5739.86 646.32 5730.25 644.927 5722.77 642.14C5715.44 639.353 5710.08 634.953 5706.71 628.94C5703.34 622.927 5701.65 615.153 5701.65 605.62C5701.65 595.94 5703.34 588.167 5706.71 582.3C5710.08 576.287 5715.44 571.887 5722.77 569.1C5730.25 566.167 5739.86 564.7 5751.59 564.7C5763.62 564.7 5773.3 566.093 5780.63 568.88C5787.96 571.667 5793.32 576.067 5796.69 582.08C5800.21 588.093 5801.97 595.94 5801.97 605.62C5801.97 615.3 5800.28 623.147 5796.91 629.16C5793.54 635.027 5788.11 639.353 5780.63 642.14C5773.3 644.927 5763.62 646.32 5751.59 646.32ZM5738.61 625.86H5755.55C5759.07 625.86 5761.49 625.2 5762.81 623.88C5764.28 622.56 5765.01 620.36 5765.01 617.28V585.16H5747.85C5744.33 585.16 5741.91 585.82 5740.59 587.14C5739.27 588.313 5738.61 590.587 5738.61 593.96V625.86ZM5803.29 683.5C5803.29 690.98 5801.6 697.14 5798.23 701.98C5794.86 706.82 5789.58 710.34 5782.39 712.54C5775.2 714.887 5765.89 716.06 5754.45 716.06C5745.65 716.06 5736.92 715.4 5728.27 714.08C5719.76 712.907 5711.55 711.147 5703.63 708.8L5708.47 681.52C5715.22 683.427 5721.74 684.82 5728.05 685.7C5734.36 686.727 5740.59 687.24 5746.75 687.24C5750.86 687.24 5754.67 687.093 5758.19 686.8C5761.71 686.507 5765.16 686.213 5768.53 685.92V675.8C5754.45 674.773 5744.4 673.453 5738.39 671.84C5732.38 670.227 5729.37 668.1 5729.37 665.46L5737.07 640.82L5762.37 641.04L5761.27 654.02C5769.63 655.193 5776.52 656.513 5781.95 657.98C5787.38 659.3 5791.63 661.06 5794.71 663.26C5797.79 665.46 5799.99 668.247 5801.31 671.62C5802.63 674.847 5803.29 678.807 5803.29 683.5ZM5791.41 595.5L5771.61 568.88L5792.73 552.6L5811.21 570.42L5791.41 595.5Z" fill="url(#paint0_linear_2_17)"/>
<path fill-rule="evenodd" clip-rule="evenodd" d="M499.054 338.62C493.44 341.67 482.238 357.645 473.307 375.338C460.483 400.742 455.042 424.767 455 456.168C454.957 489.017 461.187 515.063 475.452 541.668C486.169 561.657 496.062 573.928 502.38 575.07C510.05 576.457 517.171 570.417 517.179 562.518C517.182 559.946 516.097 557.29 513.504 553.518C511.481 550.576 507.811 545.243 505.35 541.668C498.598 531.864 490.599 514.272 486.625 500.487C478.451 472.131 478.045 447.455 485.268 417.901C490.366 397.043 497.162 382.349 510.097 364.218C516.526 355.206 517.183 353.838 517.183 349.462C517.183 339.762 507.553 334.003 499.054 338.62ZM777.453 338.125C773.996 339.655 770.645 344.288 769.62 348.955C768.939 352.054 768.79 351.782 781.539 370.683C807.559 409.26 814.017 461.876 798.35 507.668C793.866 520.775 787.94 532.364 778.664 546.167C769.557 559.718 768.621 562.747 771.7 568.701C775.54 576.126 787.537 576.992 793.451 570.271C797.817 565.309 808.453 548.282 813.969 537.425C824.121 517.444 829.811 497.097 832.218 472.168C834.627 447.212 830.003 413.38 821.125 391.017C811.687 367.241 792.483 337.702 786.434 337.654C785.471 337.647 783.783 337.428 782.683 337.168C781.583 336.908 779.229 337.339 777.453 338.125ZM537.895 377.749C529.866 383.916 517.437 408.617 513.029 427.168C510.573 437.504 509.605 459.248 511.025 472.187C513.043 490.577 520.464 511.356 530.062 525.489C535.969 534.188 539.311 536.668 545.125 536.668C550.771 536.668 554.095 534.481 556.658 529.079C558.991 524.162 558.216 521.168 552.169 511.74C534.897 484.816 530.971 454.913 540.736 424.668C542.908 417.942 546.106 410.933 549.635 405.168C559.419 389.182 559.938 386.392 554.367 379.72C551.933 376.804 550.854 376.315 546.125 375.986C541.721 375.679 540.151 376.016 537.895 377.749ZM734.798 377.756C731.483 380.364 729.183 384.711 729.183 388.368C729.184 390.077 731.71 395.22 735.667 401.566C746.252 418.544 750.115 431.176 750.919 451.453C751.894 476.01 747.113 493.799 734.693 511.828C730.067 518.545 729.183 520.531 729.183 524.213C729.183 532.828 738.807 539.523 746.543 536.291C755.073 532.727 769.64 506.219 774.282 485.815C777.224 472.883 777.939 448.868 775.768 435.885C773.656 423.256 769.473 410.202 764.089 399.439C759.385 390.035 752.201 379.495 748.94 377.211C745.673 374.922 738.026 375.217 734.798 377.756ZM631.183 380.271C612.837 383.614 602.494 388.69 590.111 400.43C579.823 410.184 574.47 418.588 570.091 431.861C566.428 442.961 565.227 457.012 567.099 466.857C571.946 492.352 590.711 525.522 628.532 575.447C631.748 579.694 636.15 585.531 638.313 588.418C640.476 591.305 642.64 593.668 643.122 593.668C644.528 593.668 652.888 583.939 660.305 573.668C664.079 568.443 669.925 560.373 673.297 555.734C683.905 541.138 689.597 532.567 697.582 519.168C708.114 501.494 713.427 490.211 717.359 477.168C720.284 467.465 720.666 464.871 720.601 455.168C720.444 432.058 709.916 409.995 692.432 396.14C685.532 390.672 672.929 384.288 664.683 382.084C658.863 380.528 636.434 379.315 631.183 380.271ZM657.842 424.626C665.568 428.204 671.631 434.346 675.455 442.472C678.198 448.301 678.389 449.433 677.982 457.472C677.655 463.927 676.956 467.3 675.269 470.56C671.882 477.108 664.649 484.291 658.308 487.406C653.431 489.801 651.487 490.168 643.683 490.168C635.926 490.168 633.923 489.795 629.176 487.463C614.038 480.028 605.228 462.117 609.559 447.581C613.073 435.79 621.483 426.962 633.044 422.93C641.419 420.009 648.989 420.526 657.842 424.626Z" fill="#173861"/>
<path d="M179.83 888C177.747 888 176.705 886.958 176.705 884.875V724.5C176.705 722.417 177.747 721.375 179.83 721.375H248.955C250.955 721.375 252.622 722.042 253.955 723.375L278.955 748.375C280.372 749.792 281.08 751.458 281.08 753.375V796.5C281.08 798.5 280.372 800.167 278.955 801.5L253.955 826.5C252.622 827.917 250.955 828.625 248.955 828.625H218.33V884.875C218.33 886.958 217.288 888 215.205 888H179.83ZM227.705 794.625C234.622 794.625 239.33 793.25 241.83 790.5C244.413 787.75 245.705 782.542 245.705 774.875C245.705 767.208 244.413 762 241.83 759.25C239.33 756.5 234.622 755.125 227.705 755.125C220.872 755.125 216.163 756.5 213.58 759.25C211.08 762 209.83 767.208 209.83 774.875C209.83 782.542 211.08 787.75 213.58 790.5C216.163 793.25 220.872 794.625 227.705 794.625ZM383.342 888C381.342 888 379.675 887.292 378.342 885.875L353.342 860.875C351.925 859.542 351.217 857.875 351.217 855.875V724.5C351.217 722.417 352.258 721.375 354.342 721.375H389.717C391.8 721.375 392.842 722.417 392.842 724.5V852.125C392.842 853.792 393.675 854.625 395.342 854.625H415.842V724.5C415.842 722.417 416.883 721.375 418.967 721.375H454.342C456.425 721.375 457.467 722.417 457.467 724.5V884.875C457.467 886.958 456.425 888 454.342 888H383.342ZM540.572 888C538.489 888 537.447 886.958 537.447 884.875V724.5C537.447 722.417 538.489 721.375 540.572 721.375H575.947C578.031 721.375 579.072 722.417 579.072 724.5V854.625H610.572C612.656 854.625 613.697 855.667 613.697 857.75V884.875C613.697 886.958 612.656 888 610.572 888H540.572ZM683.014 888C680.93 888 679.889 886.958 679.889 884.875V861.375C679.889 860.292 679.93 859.417 680.014 858.75C680.18 858.083 680.68 857.542 681.514 857.125L714.264 842.125V819.875L682.014 799.875C680.597 799.042 679.889 797.792 679.889 796.125V750.25C679.889 748.917 679.972 747.958 680.139 747.375C680.305 746.708 680.93 746 682.014 745.25L714.889 723C715.722 722.5 716.472 722.125 717.139 721.875C717.889 721.542 718.805 721.375 719.889 721.375H753.639C755.722 721.375 756.764 722.417 756.764 724.5V745.75C756.764 747.583 756.139 748.833 754.889 749.5L722.139 763V786.125L754.889 804.875C756.139 805.458 756.764 806.792 756.764 808.875V863.25C756.764 863.917 756.639 864.625 756.389 865.375C756.222 866.125 755.805 866.667 755.139 867L715.889 886.5C715.389 886.75 714.764 887.083 714.014 887.5C713.347 887.833 712.68 888 712.014 888H683.014ZM836.129 888C834.046 888 833.004 886.958 833.004 884.875V724.5C833.004 722.417 834.046 721.375 836.129 721.375H923.254C925.337 721.375 926.379 722.417 926.379 724.5V751.5C926.379 753.583 925.337 754.625 923.254 754.625H874.629V790.125H919.004C921.087 790.125 922.129 791.167 922.129 793.25V816.125C922.129 818.208 921.087 819.25 919.004 819.25H874.629V854.625H923.254C925.337 854.625 926.379 855.667 926.379 857.75V884.875C926.379 886.958 925.337 888 923.254 888H836.129Z" fill="#173861"/>
<path d="M758.381 215.578L683.652 239.805L672.788 244H407V344H362V244H202V426H282V465H202V652H362V552H407V652H898V367.423L942 297.735V694H161V203H800.365L758.381 215.578ZM407 492H362V465H345V426H362V404H407V492ZM919.353 221.602C919.629 221.986 919.911 222.369 920.199 222.748C921.672 224.688 923.249 226.506 924.913 228.198L898 284.212V244H793.264L919.353 221.602ZM942 224.175C938.007 221.596 934.386 218.292 931.346 214.287C928.672 210.765 926.64 206.955 925.229 203H942V224.175Z" fill="#E30613"/>
<path d="M1003.28 173.953C1010.18 190.379 1005.41 210.002 990.564 221.273C985.642 225.009 980.134 227.431 974.46 228.597L912.183 327.233L881.156 374.015L848.809 417.405L868.42 367.989L891.011 315.056L937.886 217.494C936.697 216.284 935.571 214.987 934.518 213.6C934.313 213.329 934.111 213.056 933.913 212.781L824.925 232.141L767.868 239.675L715 245.285L765.487 225.789L818.887 208.476L928.86 175.529C931.409 168.622 935.892 162.336 942.191 157.554C957.604 145.853 978.77 147.037 992.762 159.339L1028.44 132.249L1039.33 146.586L1003.28 173.953ZM990.272 171.273C980.253 158.077 961.434 155.501 948.238 165.519C935.041 175.538 932.465 194.357 942.483 207.554C952.502 220.75 971.321 223.326 984.518 213.308C997.714 203.289 1000.29 184.47 990.272 171.273ZM978.325 180.343C983.334 186.942 982.046 196.351 975.448 201.361C968.849 206.37 959.44 205.082 954.43 198.483C949.421 191.885 950.709 182.476 957.308 177.466C963.906 172.457 973.315 173.745 978.325 180.343ZM975.338 182.611C971.581 177.662 964.524 176.696 959.575 180.453C954.626 184.21 953.66 191.267 957.417 196.216C961.174 201.165 968.231 202.131 973.18 198.374C978.129 194.617 979.095 187.56 975.338 182.611Z" fill="#173861"/>
<defs>
<linearGradient id="paint0_linear_2_17" x1="946" y1="485.5" x2="5979" y2="485.5" gradientUnits="userSpaceOnUse">
<stop stop-color="#E30613"/>
<stop offset="0.418269" stop-color="#173861"/>
<stop offset="0.75" stop-color="#E30613"/>
<stop offset="1" stop-color="#173861"/>
</linearGradient>
</defs>
</svg>
